<svg xmlns="http://www.w3.org/2000/svg" xmlns:xlink="http://www.w3.org/1999/xlink" id="Layer_1" x="0" y="0" version="1.1" viewBox="0 0 35 33" xml:space="preserve" style="enable-background:new 0 0 35 33"><style type="text/css">.st0{fill:#543190}.st1{fill:#24aee4}</style><g><path d="M4.4,24.3c4.4-7.7,8.8-15.2,13.2-22.9c0.6,1,1.1,2.1,1.7,3c0.8,1.1,0.7,2,0,3.1c-2.4,4-4.7,8-7,12 c0,0.1-0.1,0.2-0.2,0.4H14c-0.9,1.5-1.7,2.9-2.5,4.3c-0.1,0.1-0.3,0.2-0.4,0.2C8.9,24.3,6.7,24.3,4.4,24.3" class="st0"/><path d="M12.9,24.3c0.8-1.5,1.6-2.8,2.4-4.1c0.1-0.1,0.4-0.2,0.6-0.2c3.9,0,7.9,0,11.8,0c0.2,0,0.6,0.2,0.7,0.4 c2.1,3.5,4.1,7.1,6.2,10.6c0.1,0.1,0.1,0.2,0.2,0.5c-1.1,0-2.1-0.1-3,0c-1.4,0.2-2.3-0.3-2.9-1.6c-0.8-1.7-1.9-3.2-2.8-4.9 c-0.3-0.5-0.6-0.7-1.2-0.7c-3.6,0-7.3,0-10.9,0C13.7,24.3,13.4,24.3,12.9,24.3" class="st1"/><path d="M28.3,31.5H15.2c0.9-1.5,1.7-2.9,2.5-4.3c0.1-0.1,0.4-0.2,0.5-0.2c2.4,0,4.8,0,7.1,0c0.2,0,0.5,0.1,0.6,0.3 c0.8,1.3,1.6,2.7,2.3,4C28.4,31.4,28.3,31.5,28.3,31.5" class="st0"/><path d="M21.8,8.7c1.6,2.8,3.2,5.5,4.8,8.2h-9.5C18.7,14.2,20.2,11.5,21.8,8.7" class="st0"/><path d="M0.2,31.5c0.9-1.5,1.6-2.9,2.4-4.2c0.1-0.1,0.4-0.3,0.6-0.3c2.2,0,4.3,0,6.6,0c-0.1,0.2-0.2,0.4-0.2,0.6 c-0.6,1-1.2,2-1.7,3c-0.4,0.8-0.8,1-1.6,0.9C4.3,31.5,2.3,31.5,0.2,31.5" class="st0"/><path d="M16.3,27.1c-0.8,1.5-1.6,2.7-2.3,4c-0.1,0.1-0.3,0.3-0.5,0.3c-1.5,0-3,0-4.6,0c0.3-0.5,0.5-0.8,0.7-1.2 c0.4-0.7,0.9-1.3,1.2-2c0.4-0.9,1-1.1,1.9-1.1C13.7,27.2,14.9,27.1,16.3,27.1" class="st1"/></g></svg>